<?xml version="1.0" encoding="UTF-8"?>
<svg id="Layer_1" xmlns="http://www.w3.org/2000/svg" version="1.1" viewBox="0 0 1920 1080">
  <!-- Generator: Adobe Illustrator 29.4.0, SVG Export Plug-In . SVG Version: 2.1.0 Build 152)  -->
  <defs>
    <style>
      .st0 {
        fill: #748468;
      }

      .st1 {
        fill: #afb5a9;
        font-family: CodecPro-Light, 'Codec Pro';
        font-size: 70.84px;
        font-weight: 300;
        letter-spacing: .14em;
      }

      .st2 {
        fill: #abc0b0;
      }

      .st3 {
        fill: #9d58a3;
      }
    </style>
  </defs>
  <path class="st2" d="M454.09,612.71s64.41,3.99,147.96-28.6c0,0,97.42-45.03,132.68-66.96,35.22-21.9,200.77-95.01,252.76-110.43,1.76-.52,6.11-1.86,7.89-2.28,25.3-5.97,139.47-33.18,277.91-35.62l152.19,8.93c-121.65-9.92-292.51-2.32-411.02,28.13-36.1,9.28-73.26,22.71-108.03,37.23,0,0-126.98,53.54-166.62,79.24,0,0-165.55,101.55-285.72,90.36Z"/>
  <path class="st3" d="M584.95,599.21c10.05-3.89,20.07-7.86,30.04-11.92,10.82-4.41,21.59-8.94,32.25-13.68,9.73-4.32,19.4-8.79,28.81-13.69,7.29-3.8,14.38-7.91,21.58-11.85,7.47-4.09,14.94-8.17,22.43-12.23,14.97-8.13,29.98-16.2,45.09-24.13,15.1-7.92,30.28-15.71,45.61-23.26,15.31-7.54,30.76-14.86,46.38-21.86,15.62-7,31.41-13.67,47.4-19.93,2.96-1.16,5.94-2.27,8.9-3.43,199.18-78.18,384.27-67.07,512.03-61.9-104.74-2.22-293.3-6.05-442.63,43.28-16.75,5.53-35.89,12.16-51.83,17.83-15.94,5.66-31.07,11.88-46.75,18.13s-31.24,13.64-46.66,20.41c-15.43,6.78-30.45,15.12-45.62,22.37-15.17,7.25-30.22,14.72-45.14,22.38-14.92,7.66-30.1,14.97-44.41,23.53-4.03,2.41-25.67,12.47-28.64,14.12"/>
  <g>
    <g>
      <path class="st0" d="M592.33,587.04c-30.13,1.15-53.28-23.84-63.29-37.9-10.86-15.26-16.93-33.59-18.76-52.15-.41-4.11-.61-8.24-.61-12.37,0-20.65,4.26-38.7,12.79-54.14,8.53-15.44,20.51-27.47,35.95-36.1,15.44-8.62,33.58-12.93,54.43-12.93,14.02,0,26.67,1.85,37.94,5.54,11.27,3.7,21.08,8.29,29.42,13.79l5.68,40.08h-2.56c-4.17-16.67-12.7-29.32-25.58-37.94-12.89-8.62-27.85-12.93-44.91-12.93s-31.12,3.93-43.34,11.8c-12.22,7.86-21.7,18.86-28.42,32.97-6.73,14.12-10.09,30.65-10.09,49.6s3.36,35.53,10.09,49.74c4.39,9.27,15.38,24.35,24.51,29.36s11.43,14.28,47.81,14.51"/>
      <path class="st0" d="M910.63,578.04v15.48h-18.09v-2.18h4.14c3.63,0,6.76-1.31,9.37-3.92,2.62-2.62,3.92-5.74,3.92-9.37h.65ZM919.79,452.84l.21,140.67h-10.03s.65-103.77.74-137.18M919.79,452.84l117.04,119.59,1.96,23.76-118.98-126.76-.03-16.59ZM920,578.04c0,3.63,1.31,6.76,3.92,9.37,2.62,2.62,5.74,3.92,9.37,3.92h4.14v2.18h-18.09v-15.48h.65ZM1011.33,440.93h18.09v15.48h-.44c-.15-3.78-1.49-6.94-4.03-9.48-2.54-2.54-5.7-3.81-9.48-3.81h-4.14v-2.18ZM1038.79,440.93v127.73c0,4.65.14,9.12.44,13.4.29,4.29.8,9.12,1.53,14.49h-1.96l-9.81-11.55v-144.08h9.81ZM1056.23,440.93v2.18h-3.92c-3.63,0-6.76,1.27-9.37,3.81-2.62,2.54-4,5.7-4.14,9.48h-.65v-15.48h18.09Z"/>
      <path class="st0" d="M1155.19,435.9c15.55,0,29.21,3.31,40.98,9.92,11.77,6.61,20.96,15.88,27.57,27.79,6.61,11.92,9.92,25.8,9.92,41.63s-3.31,29.72-9.92,41.63c-6.61,11.92-15.8,21.18-27.57,27.79-11.77,6.61-25.43,9.92-40.98,9.92s-28.99-3.3-40.76-9.92c-11.77-6.61-20.96-15.87-27.57-27.79-6.61-11.91-9.92-25.79-9.92-41.63s3.3-29.72,9.92-41.63c6.61-11.91,15.8-21.18,27.57-27.79,11.77-6.61,25.36-9.92,40.76-9.92ZM1155.19,588.04c12.35,0,23.14-3.05,32.37-9.15,9.23-6.1,16.42-14.6,21.58-25.5,5.16-10.9,7.74-23.61,7.74-38.14s-2.58-27.25-7.74-38.14c-5.16-10.9-12.35-19.4-21.58-25.5-9.23-6.1-20.02-9.15-32.37-9.15s-22.92,3.05-32.15,9.15c-9.23,6.1-16.42,14.6-21.58,25.5-5.16,10.9-7.74,23.62-7.74,38.14s2.58,27.25,7.74,38.14c5.16,10.9,12.35,19.4,21.58,25.5,9.23,6.1,19.94,9.15,32.15,9.15Z"/>
      <path class="st0" d="M1270.49,454.86h-.65c0-3.78-1.38-7.01-4.14-9.7-2.76-2.69-6.03-4.03-9.81-4.03h-2.62l-.22-2.18h17.44v15.91ZM1270.49,575.62v15.91h-17.44v-2.18h2.83c3.78,0,7.01-1.34,9.7-4.03s4.1-5.92,4.25-9.7h.65ZM1284.01,438.95v152.58h-14.17v-152.58h14.17ZM1309.95,438.95c9.3,0,17.29,1.67,23.98,5.01,6.68,3.35,11.84,8.17,15.48,14.5,3.63,6.32,5.45,13.84,5.45,22.56,0,6.69-1.31,12.68-3.92,17.98-2.62,5.31-6.1,9.77-10.46,13.41-4.36,3.63-9.3,6.36-14.82,8.17-5.52,1.82-11.23,2.51-17.11,2.07-5.89-.44-11.59-2.1-17.11-5.01v-2.18c4.94.73,9.34.98,13.19.76,3.85-.22,7.92-1.02,12.21-2.4,4.28-1.38,8.28-3.81,11.99-7.3,3.71-3.49,6.5-8.35,8.39-14.6.44-1.6.8-3.6,1.09-5.99.29-2.4.36-4.76.22-7.08-.15-10.03-2.76-18.09-7.85-24.19-5.09-6.1-12.28-9.16-21.58-9.16h-25.72c-.73-2.18-1.45-4.36-2.18-6.54h28.77ZM1283.35,575.62h.65c.14,3.78,1.56,7.01,4.25,9.7,2.69,2.69,5.92,4.03,9.7,4.03h2.83v2.18h-17.44v-15.91Z"/>
      <path class="st0" d="M1395.17,454.86h-.65c-.15-3.78-1.56-7.01-4.25-9.7-2.69-2.69-5.92-4.03-9.7-4.03h-2.83v-2.18h17.44v15.91ZM1395.17,575.62v15.91h-17.44v-2.18h2.83c3.78,0,7.01-1.34,9.7-4.03s4.1-5.92,4.25-9.7h.65ZM1408.69,438.95v152.58h-14.17v-152.58h14.17ZM1408.03,454.86v-15.91h17.44v2.18h-2.83c-3.78,0-7.01,1.35-9.7,4.03-2.69,2.69-4.11,5.92-4.25,9.7h-.65ZM1408.03,575.62h.65c.14,3.78,1.56,7.01,4.25,9.7,2.69,2.69,5.92,4.03,9.7,4.03h2.83v2.18h-17.44v-15.91Z"/>
      <path class="st0" d="M771.3,492.22l18.09-42.36,14.47,28.52c3.96-1.63,8.03-3.3,12.21-5l-25.25-45.12-1.96.08c.04.96-.3,2.47-1.02,4.53-.72,2.07-1.58,4.19-2.58,6.39-1,2.19-2.24,4.82-3.72,7.87l-23.62,51.18c3.75-1.78,8.24-3.82,13.36-6.08Z"/>
      <path class="st0" d="M746.81,588.56c-1.87-1.22-3.21-2.96-4.02-5.23-.7-1.97-.67-4.3.08-6.99l20.2-51.58c-5.48,2.79-5.82,2.38-12.93,5.06,0,0-5.5,11.99-6.7,14.91l-14.82,31.86c-2.47,4.71-5.49,8.15-9.09,10.27-3.98,2.36-7.83,3.53-11.57,3.53h-2.19v2.43h48.94v-2.43h-2.19c-1.95,0-3.86-.61-5.72-1.83Z"/>
      <path class="st0" d="M870.62,586.86c-4.06-2.35-7.3-6.29-9.74-11.81h0l-35.44-84.76c-4.76,2.02-9.27,4.89-13.92,6.91l29.74,78.93c1.35,4.34.93,7.76-1.32,10.24-2.43,2.68-5.2,4.02-8.28,4.02h-2.19v2.43h54.78v-2.43h-1.95c-3.74,0-7.63-1.18-11.69-3.53Z"/>
    </g>
    <path class="st0" d="M637.71,582.4c2.89-.83,8.52-2.1,16.59-6.02l25.02-5.03s-7.11,7.59-27.39,15.42c0,0-17.37,7.78-43.12,5.72l21.36-9.2c1.68,0,5.57-.31,7.55-.88Z"/>
  </g>
  <text class="st1" transform="translate(557.43 671.75)"><tspan x="0" y="0">STRATEGY PARTNERS</tspan></text>
</svg>